# File created by Blade
# Date/Time:  Tue Apr 07 20:41:02 2015
# Frame Rate: 120.000 fps
#------------------------------------------------------
:FULLY-SPECIFIED
:DEGREES
1252
root 4.841719 34.380605 -3.357826 18.947986 -17.386290 -52.073520
Spine 0.055490 22.551293 35.409576
Head 5.220188 -3.661094 16.489293
LeftShoulder -19.212687 21.189469 37.291475
LeftArm 100.055221 -78.242763 -70.044939
LeftForeArm 20.665186 -0.000000 28.055298
LeftHand 12.225409 0.000000 22.035671
LeftHandThumb1 -26.253704 0.000000 33.147579
RightShoulder -5.562866 35.403096 -29.710090
RightArm 62.875522 75.537709 98.179010
RightForeArm 40.824958 0.000000 58.442769
RightHand 1.622108 0.000000 29.604447
RightHandThumb1 -24.326973 -0.000000 -32.862282
LeftUpLeg -9.235050 9.459573 44.958676
LeftLeg 22.310095 -0.000000 -0.000000
LeftFoot -22.325530 29.840424 -23.808715
LeftToeBase -5.684044 -0.000000 0.000000
RightUpLeg -137.642396 -54.490664 26.004554
RightLeg -12.190000 -0.000000 0.000000
RightFoot 36.492598 -23.610633 17.212932
RightToeBase 23.372806 -0.000000 -0.000000
1253
root 4.865086 34.385110 -3.353994 18.970843 -17.418725 -52.011945
Spine 0.070374 22.609795 35.363337
Head 5.046843 -3.677791 16.226022
LeftShoulder -19.217007 20.991187 37.333896
LeftArm 98.736971 -78.048799 -68.819308
LeftForeArm 20.774604 -0.000000 28.133727
LeftHand 12.191472 0.000000 22.321263
LeftHandThumb1 -26.253704 0.000000 33.147579
RightShoulder -5.595721 35.276704 -29.708684
RightArm 63.337197 75.541843 98.648936
RightForeArm 40.828539 -0.000000 58.406962
RightHand 1.659900 -0.000000 29.637384
RightHandThumb1 -24.326973 -0.000000 -32.862282
LeftUpLeg -9.264479 9.601069 44.859553
LeftLeg 22.311050 -0.000000 -0.000000
LeftFoot -22.296848 29.700574 -23.971247
LeftToeBase -5.726340 -0.000000 0.000000
RightUpLeg -137.583715 -54.486185 25.925499
RightLeg -12.186430 -0.000000 0.000000
RightFoot 36.473481 -23.630516 17.198164
RightToeBase 23.405778 -0.000000 -0.000000
1254
root 4.888310 34.390373 -3.349380 18.999749 -17.469606 -51.953375
Spine 0.091322 22.680729 35.310079
Head 4.859096 -3.679575 15.977316
LeftShoulder -19.236961 21.154483 37.226649
LeftArm 99.045333 -78.086700 -69.147309
LeftForeArm 20.834030 0.000000 28.179392
LeftHand 12.142892 -0.000000 22.173978
LeftHandThumb1 -26.253704 0.000000 33.147579
RightShoulder -5.638618 35.293694 -29.717938
RightArm 63.230919 75.581741 98.557075
RightForeArm 40.853361 0.000000 58.367827
RightHand 1.701692 -0.000000 29.710596
RightHandThumb1 -24.326973 -0.000000 -32.862282
LeftUpLeg -9.282750 9.748660 44.760527
LeftLeg 22.312922 -0.000000 -0.000000
LeftFoot -22.339996 29.548714 -24.244821
LeftToeBase -5.814606 -0.000000 0.000000
RightUpLeg -137.511154 -54.486370 25.820076
RightLeg -12.170055 -0.000000 0.000000
RightFoot 36.443550 -23.661036 17.124614
RightToeBase 23.593525 -0.000000 -0.000000
1255
root 4.912119 34.396372 -3.342027 19.012872 -17.519685 -51.917908
Spine 0.131879 22.744110 35.305044
Head 4.698478 -3.709649 15.673621
LeftShoulder -19.223000 21.391435 37.084079
LeftArm 99.255215 -78.227628 -69.356835
LeftForeArm 20.947711 -0.000000 28.195364
LeftHand 12.242096 -0.000000 22.162723
LeftHandThumb1 -26.253704 0.000000 33.147579
RightShoulder -5.680057 35.342459 -29.765943
RightArm 62.960478 75.644915 98.320274
RightForeArm 40.896620 -0.000000 58.342776
RightHand 1.699229 -0.000000 29.727477
RightHandThumb1 -24.326973 -0.000000 -32.862282
LeftUpLeg -9.279752 9.905002 44.684669
LeftLeg 22.324610 -0.000000 -0.000000
LeftFoot -22.355672 29.334387 -24.459469
LeftToeBase -5.567584 -0.000000 0.000000
RightUpLeg -137.470225 -54.454987 25.787094
RightLeg -12.154692 -0.000000 0.000000
RightFoot 36.436525 -23.666928 17.208716
RightToeBase 23.614247 -0.000000 -0.000000
1256
root 4.935295 34.402559 -3.331918 18.995535 -17.593569 -51.857080
Spine 0.187461 22.796756 35.270902
Head 4.584245 -3.723997 15.411574
LeftShoulder -19.214412 21.390276 37.052183
LeftArm 98.044170 -78.203742 -68.163413
LeftForeArm 20.907890 -0.000000 28.183245
LeftHand 12.184729 0.000000 22.130403
LeftHandThumb1 -26.253704 0.000000 33.147579
RightShoulder -5.711650 35.348205 -29.782921
RightArm 62.879314 75.690760 98.262029
RightForeArm 40.931319 -0.000000 58.338840
RightHand 1.659486 -0.000000 29.738218
RightHandThumb1 -24.326973 -0.000000 -32.862282
LeftUpLeg -9.230233 10.023441 44.584915
LeftLeg 22.312545 -0.000000 -0.000000
LeftFoot -22.388852 29.162812 -24.708204
LeftToeBase -5.454603 -0.000000 0.000000
RightUpLeg -137.415792 -54.416838 25.719453
RightLeg -12.143277 -0.000000 0.000000
RightFoot 36.422292 -23.674370 17.363369
RightToeBase 23.589234 -0.000000 -0.000000
1257
root 4.958945 34.410040 -3.320711 18.980778 -17.668104 -51.793218
Spine 0.230020 22.824089 35.230158
Head 4.498957 -3.717616 15.156420
LeftShoulder -19.224329 21.351139 37.056953
LeftArm 97.204357 -78.069586 -67.400284
LeftForeArm 20.982128 -0.000000 28.216011
LeftHand 12.159654 -0.000000 21.976707
LeftHandThumb1 -26.253704 0.000000 33.147579
RightShoulder -5.704074 35.372142 -29.765159
RightArm 62.803134 75.746931 98.179703
RightForeArm 40.963889 -0.000000 58.329702
RightHand 1.607679 -0.000000 29.773423
RightHandThumb1 -24.326973 -0.000000 -32.862282
LeftUpLeg -9.177363 10.173119 44.485301
LeftLeg 22.298448 -0.000000 -0.000000
LeftFoot -22.390387 28.925999 -24.947077
LeftToeBase -5.376362 -0.000000 0.000000
RightUpLeg -137.399322 -54.374521 25.684571
RightLeg -12.124565 -0.000000 0.000000
RightFoot 36.378469 -23.663384 17.575194
RightToeBase 23.543078 -0.000000 -0.000000
